<?xml version="1.0" standalone="no"?>
<!DOCTYPE svg PUBLIC "-//W3C//DTD SVG 20010904//EN"
 "http://www.w3.org/TR/2001/REC-SVG-20010904/DTD/svg10.dtd">
<svg version="1.0" xmlns="http://www.w3.org/2000/svg"
 width="100.000000pt" height="100.000000pt" viewBox="0 0 100.000000 100.000000"
 preserveAspectRatio="xMidYMid meet">
<metadata>
Created by potrace 1.16, written by Peter Selinger 2001-2019
</metadata>
<g transform="translate(0.000000,100.000000) scale(0.100000,-0.100000)"
fill="#000000" stroke="none">
<path d="M341 958 c-5 -13 -14 -50 -21 -83 -7 -33 -21 -101 -32 -151 -14 -66
-18 -110 -14 -155 11 -111 10 -122 -7 -201 -17 -76 -23 -259 -11 -306 5 -17
14 -22 39 -22 33 0 33 1 24 32 -5 18 -9 89 -9 157 0 116 1 123 19 118 17 -4
18 0 14 34 l-6 38 42 -38 c22 -21 59 -46 81 -56 39 -17 41 -17 80 0 22 10 59
35 81 56 l42 38 -6 -40 c-5 -36 -3 -39 15 -33 19 6 20 3 16 -133 -2 -76 -8
-146 -12 -155 -7 -17 1 -18 99 -18 l107 0 -7 38 c-13 75 -36 140 -68 193 -51
86 -99 217 -87 239 16 30 12 124 -11 228 -44 206 -53 237 -72 240 -25 5 -60
-29 -82 -79 -16 -35 -22 -39 -55 -39 -33 0 -39 4 -51 31 -31 77 -90 113 -108
67z m137 -240 c9 -19 10 -38 3 -67 -9 -40 -8 -41 16 -41 25 0 25 2 19 48 -7
53 11 92 44 92 21 0 117 -110 126 -145 7 -27 -6 -54 -75 -157 -85 -129 -137
-129 -222 0 -96 145 -96 148 -18 242 57 68 84 75 107 28z"/>
</g>
</svg>
